<?xml version="1.0" encoding="utf-8"?>
<!-- Generator: Adobe Illustrator 19.0.0, SVG Export Plug-In . SVG Version: 6.00 Build 0)  -->
<svg version="1.1" xmlns="http://www.w3.org/2000/svg" xmlns:xlink="http://www.w3.org/1999/xlink" x="0px" y="0px"
	 viewBox="0 0 3500 3500" style="enable-background:new 0 0 3500 3500;" xml:space="preserve">
<style type="text/css">
	.st0{display:none;}
	.st1{display:inline;}
	.st2{fill:#5CC1D9;}
	.st3{display:inline;fill:#E9E9E9;stroke:#000000;stroke-width:5;stroke-miterlimit:10;}
	.st4{display:inline;fill:#5CC1D9;}
	.st5{fill:#F88212;}
</style>
<g id="Layer_1" class="st0">
	<g id="XMLID_10_" class="st1">
		<path id="XMLID_12_" class="st2" d="M3235.1,413.1L1774.7,988.6c-15.9,6.3-33.5,6.3-49.4,0L264.9,413.1
			c-25.7-10.1-42.7-35-42.7-62.7V150.8c0-47.5,47.9-80.1,92.1-62.7l1411,556.1c15.9,6.3,33.5,6.3,49.4,0l1411-556.1
			c44.2-17.4,92.1,15.2,92.1,62.7v199.6C3277.8,378.1,3260.9,402.9,3235.1,413.1z"/>
		<path id="XMLID_3_" class="st2" d="M3235.1,922l-1460.4,575.6c-15.9,6.3-33.5,6.3-49.4,0L264.9,922c-25.7-10.1-42.7-35-42.7-62.7
			V659.7c0-47.5,47.9-80.1,92.1-62.7l1411,556.1c15.9,6.3,33.5,6.3,49.4,0l1411-556.1c44.2-17.4,92.1,15.2,92.1,62.7v199.6
			C3277.8,887,3260.9,911.8,3235.1,922z"/>
		<path id="XMLID_5_" class="st2" d="M3235.1,1416l-1460.4,575.6c-15.9,6.3-33.5,6.3-49.4,0L264.9,1416
			c-25.7-10.1-42.7-35-42.7-62.7v-199.6c0-47.5,47.9-80.1,92.1-62.7l1411,556.1c15.9,6.3,33.5,6.3,49.4,0l1411-556.1
			c44.2-17.4,92.1,15.2,92.1,62.7v199.6C3277.8,1381,3260.9,1405.8,3235.1,1416z"/>
		<path id="XMLID_4_" class="st2" d="M3235.1,1924.9l-1460.4,575.6c-15.9,6.3-33.5,6.3-49.4,0L264.9,1924.9
			c-25.7-10.1-42.7-35-42.7-62.7v-199.6c0-47.5,47.9-80.1,92.1-62.7l1411,556.1c15.9,6.3,33.5,6.3,49.4,0l1411-556.1
			c44.2-17.4,92.1,15.2,92.1,62.7v199.6C3277.8,1889.9,3260.9,1914.7,3235.1,1924.9z"/>
		<path id="XMLID_6_" class="st2" d="M3235.1,2416l-1460.4,575.6c-15.9,6.3-33.5,6.3-49.4,0L264.9,2416
			c-25.7-10.1-42.7-35-42.7-62.7v-199.6c0-47.5,47.9-80.1,92.1-62.7l1411,556.1c15.9,6.3,33.5,6.3,49.4,0l1411-556.1
			c44.2-17.4,92.1,15.2,92.1,62.7v199.6C3277.8,2381,3260.9,2405.8,3235.1,2416z"/>
		<path id="XMLID_7_" class="st2" d="M3234.8,2911.9l-1461.6,572.6c-15.9,6.2-33.5,6.2-49.4-0.1L264.6,2905.9
			c-25.7-10.2-42.6-35.1-42.5-62.8l0.4-199.6c0.1-47.5,48-80,92.2-62.5l1409.9,559c15.9,6.3,33.5,6.3,49.4,0.1L3186,2586.8
			c44.2-17.3,92,15.3,91.9,62.9l-0.4,199.6C3277.5,2877,3260.5,2901.8,3234.8,2911.9z"/>
	</g>
</g>
<g id="Layer_2">
	<g id="XMLID_11_" class="st0">
		<path id="XMLID_52_" class="st3" d="M1749,265v3153.1h-440.4c-15.5,0-28.3-11.6-30.3-26.6v0c-0.2-1.3-0.3-2.6-0.3-4v-1793
			c0-8.9-3.9-17.4-10.7-23.2L545.9,957.1L157.5,626.3l-40.9-34.8c-6.8-5.8-10.7-14.3-10.7-23.2V295.5c0-16.9,13.7-30.5,30.5-30.5
			H1749z"/>
		<path id="XMLID_51_" class="st3" d="M3392.1,295.5v272.7c0,8.9-3.9,17.4-10.7,23.2l-40.9,34.8l0,0l-388.4,330.7l0,0l-721.4,614.3
			c-6.8,5.8-10.7,14.3-10.7,23.2v1793c0,1.9-0.2,3.8-0.5,5.6c-2.6,14.2-15,25-30,25H1749V265h1612.6
			C3378.4,265,3392.1,278.7,3392.1,295.5z"/>
	</g>
	<g id="XMLID_13_" class="st0">
		<path id="XMLID_23_" class="st4" d="M3930.1,808.1l-1460.4,575.6c-15.9,6.3-33.5,6.3-49.4,0L959.9,808.1
			c-25.7-10.1-42.7-35-42.7-62.7V545.8c0-47.5,47.9-80.1,92.1-62.7l1411,556.1c15.9,6.3,33.5,6.3,49.4,0l1411-556.1
			c44.2-17.4,92.1,15.2,92.1,62.7v199.6C3972.8,773.1,3955.9,797.9,3930.1,808.1z"/>
		<path id="XMLID_22_" class="st4" d="M3930.1,1317l-1460.4,575.6c-15.9,6.3-33.5,6.3-49.4,0L959.9,1317
			c-25.7-10.1-42.7-35-42.7-62.7v-199.6c0-47.5,47.9-80.1,92.1-62.7l1411,556.1c15.9,6.3,33.5,6.3,49.4,0l1411-556.1
			c44.2-17.4,92.1,15.2,92.1,62.7v199.6C3972.8,1282,3955.9,1306.8,3930.1,1317z"/>
		<path id="XMLID_21_" class="st4" d="M3930.1,1811l-1460.4,575.6c-15.9,6.3-33.5,6.3-49.4,0L959.9,1811
			c-25.7-10.1-42.7-35-42.7-62.7v-199.6c0-47.5,47.9-80.1,92.1-62.7l1411,556.1c15.9,6.3,33.5,6.3,49.4,0l1411-556.1
			c44.2-17.4,92.1,15.2,92.1,62.7v199.6C3972.8,1776,3955.9,1800.8,3930.1,1811z"/>
		<path id="XMLID_20_" class="st4" d="M3930.1,2319.9l-1460.4,575.6c-15.9,6.3-33.5,6.3-49.4,0L959.9,2319.9
			c-25.7-10.1-42.7-35-42.7-62.7v-199.6c0-47.5,47.9-80.1,92.1-62.7l1411,556.1c15.9,6.3,33.5,6.3,49.4,0l1411-556.1
			c44.2-17.4,92.1,15.2,92.1,62.7v199.6C3972.8,2284.9,3955.9,2309.7,3930.1,2319.9z"/>
		<path id="XMLID_17_" class="st4" d="M3930.1,2811l-1460.4,575.6c-15.9,6.3-33.5,6.3-49.4,0L959.9,2811
			c-25.7-10.1-42.7-35-42.7-62.7v-199.6c0-47.5,47.9-80.1,92.1-62.7l1411,556.1c15.9,6.3,33.5,6.3,49.4,0l1411-556.1
			c44.2-17.4,92.1,15.2,92.1,62.7v199.6C3972.8,2776,3955.9,2800.8,3930.1,2811z"/>
		<path id="XMLID_14_" class="st4" d="M3929.8,3306.9l-1461.6,572.6c-15.9,6.2-33.5,6.2-49.4-0.1L959.6,3300.9
			c-25.7-10.2-42.6-35.1-42.5-62.8l0.4-199.6c0.1-47.5,48-80,92.2-62.5l1409.9,559c15.9,6.3,33.5,6.3,49.4,0.1L3881,2981.8
			c44.2-17.3,92,15.3,91.9,62.9l-0.4,199.6C3972.5,3272,3955.5,3296.8,3929.8,3306.9z"/>
	</g>
	<g id="XMLID_32_">
		<g id="XMLID_1_">
			<path id="XMLID_16_" class="st5" d="M3425.9,524.6l-1641.1,679c-17.8,7.4-37.7,7.4-55.5,0L88.2,524.6
				c-28.9-12-47.9-41.3-47.9-73.9V215.2c0-56.1,53.8-94.5,103.5-73.9l1585.6,656c17.8,7.4,37.7,7.4,55.5,0l1585.6-656
				c49.7-20.6,103.5,17.9,103.5,73.9v235.5C3473.8,483.3,3454.8,512.7,3425.9,524.6z"/>
			<path id="XMLID_31_" class="st5" d="M3008.4,891.4l-750.4,670.8c-7.1,6.3-11.2,15.6-11.2,25.4v25.2L1784.8,1804
				c-8.9,3.7-18.3,5.5-27.8,5.5c-9.4,0-18.8-1.9-27.8-5.5l-462.1-191.2v-25.2c0-9.8-4.1-19-11.2-25.4L505.7,891.4l1223.6,506.3
				c8.9,3.7,18.3,5.5,27.8,5.5c9.4,0,18.8-1.9,27.8-5.5L3008.4,891.4z"/>
			<path id="XMLID_30_" class="st5" d="M2246.9,1789.2v406.3l-462.1,191.2c-8.9,3.7-18.3,5.5-27.8,5.5c-9.4,0-18.8-1.9-27.8-5.5
				l-462.1-191.2v-406.3l462.1,191.2c8.9,3.7,18.3,5.5,27.8,5.5c9.4,0,18.8-1.8,27.8-5.5L2246.9,1789.2z"/>
			<path id="XMLID_29_" class="st5" d="M2246.9,2389.6v406.3l-462.1,191.2c-8.9,3.7-18.3,5.5-27.8,5.5c-9.4,0-18.8-1.9-27.8-5.5
				l-462.1-191.2v-406.3l462.1,191.2c8.9,3.7,18.3,5.5,27.8,5.5c9.4,0,18.8-1.9,27.8-5.5L2246.9,2389.6z"/>
			<path id="XMLID_27_" class="st5" d="M2246.9,2968.9v406.3l-24.3,10.1h-931l-24.3-10.1v-406.3l462.1,191.2
				c8.9,3.7,18.3,5.5,27.8,5.5c9.4,0,18.8-1.9,27.8-5.5L2246.9,2968.9z"/>
		</g>
		<g id="XMLID_15_">
			<path id="XMLID_33_" class="st5" d="M2952.7,135.7l-1169.6,481c-8.4,3.4-17.2,5.3-26.1,5.5c-10,0.2-20-1.6-29.4-5.6L572.2,135.7
				h977.1l179.2,74.6c9.2,3.8,18.9,5.7,28.7,5.6c9.1-0.1,18.2-1.9,26.9-5.5l181.6-74.7H2952.7z"/>
		</g>
	</g>
	<g id="XMLID_8_" class="st0">
		<g id="XMLID_19_" class="st1">
			<path id="XMLID_34_" class="st2" d="M4886.9,492.6l-1641.1,679c-17.8,7.4-37.7,7.4-55.5,0l-1641.1-679
				c-28.9-12-47.9-41.3-47.9-73.9V183.2c0-56.1,53.8-94.5,103.5-73.9l1585.6,656c17.8,7.4,37.7,7.4,55.5,0l1585.6-656
				c49.7-20.6,103.5,17.9,103.5,73.9v235.5C4934.8,451.3,4915.8,480.7,4886.9,492.6z"/>
			<path id="XMLID_28_" class="st2" d="M4469.4,859.4l-750.4,670.8c-7.1,6.3-11.2,15.6-11.2,25.4v25.2L3245.8,1772
				c-8.9,3.7-18.3,5.5-27.8,5.5s-18.8-1.9-27.8-5.5l-462.1-191.2v-25.2c0-9.8-4.1-19-11.2-25.4l-750.4-670.8l1223.6,506.3
				c8.9,3.7,18.3,5.5,27.8,5.5s18.8-1.9,27.8-5.5L4469.4,859.4z"/>
			<path id="XMLID_26_" class="st2" d="M3707.9,1757.2v406.3l-462.1,191.2c-8.9,3.7-18.3,5.5-27.8,5.5s-18.8-1.9-27.8-5.5
				l-462.1-191.2v-406.3l462.1,191.2c8.9,3.7,18.3,5.5,27.8,5.5s18.8-1.8,27.8-5.5L3707.9,1757.2z"/>
			<path id="XMLID_25_" class="st2" d="M3707.9,2357.6v406.3l-462.1,191.2c-8.9,3.7-18.3,5.5-27.8,5.5s-18.8-1.9-27.8-5.5
				l-462.1-191.2v-406.3l462.1,191.2c8.9,3.7,18.3,5.5,27.8,5.5s18.8-1.9,27.8-5.5L3707.9,2357.6z"/>
			<path id="XMLID_24_" class="st2" d="M3707.9,2936.9v406.3l-24.3,10.1h-931l-24.3-10.1v-406.3l462.1,191.2
				c8.9,3.7,18.3,5.5,27.8,5.5s18.8-1.9,27.8-5.5L3707.9,2936.9z"/>
		</g>
		<g id="XMLID_9_" class="st1">
			<path id="XMLID_18_" class="st2" d="M4413.7,103.7l-1169.6,481c-8.4,3.4-17.2,5.3-26.1,5.5c-10,0.2-20-1.6-29.4-5.6L2033.2,103.7
				h977.1l179.2,74.6c9.2,3.8,18.9,5.7,28.7,5.6c9.1-0.1,18.2-1.9,26.9-5.5l181.6-74.7H4413.7z"/>
		</g>
	</g>
</g>
</svg>
